<svg width="16" height="16" viewBox="0 0 16 16" fill="none" xmlns="http://www.w3.org/2000/svg">
<path d="M15.9458 11.3028C15.8858 12.5857 15.5919 13.7201 14.6536 14.6586C13.7153 15.5971 12.5811 15.8878 11.3015 15.951C10.1989 16.011 9.08998 16.0015 8 16.0015C6.91002 16.0015 5.78845 16.0015 4.69847 15.951C3.43472 15.8878 2.28156 15.5971 1.34323 14.6586C0.404902 13.7201 0.114245 12.5857 0.0542175 11.3028C-0.00896965 10.2 0.000504176 9.09089 0.000504176 8.00074C0.000504176 6.91058 0.00050842 5.80463 0.0542175 4.69867C0.114245 3.41893 0.408061 2.28453 1.34323 1.34605C2.2784 0.40757 3.41893 0.116862 4.69847 0.0536649C5.80108 -0.00953253 6.91002 0.003107 8 0.003107C9.08998 0.003107 10.2115 0.00310695 11.3015 0.0536649C12.5811 0.116862 13.7184 0.40757 14.6536 1.34605C15.5888 2.28453 15.8858 3.41893 15.9458 4.69867C16.009 5.80463 15.9995 6.91058 15.9995 8.00074C15.9995 9.09089 16.0058 10.2 15.9458 11.3028ZM3.28308 1.76631C2.93718 1.89797 2.6244 2.10401 2.36686 2.36985C2.10193 2.62878 1.89515 2.94116 1.76027 3.28621C1.34323 4.33845 1.44433 6.83791 1.44433 8.0039C1.44433 9.16989 1.34955 11.6725 1.76027 12.7247C1.89515 13.0698 2.10193 13.3822 2.36686 13.6411C2.6244 13.907 2.93718 14.113 3.28308 14.2446C4.33515 14.6617 6.8342 14.5606 8 14.5606C9.1658 14.5606 11.6649 14.6554 12.7169 14.2446C13.0628 14.113 13.3756 13.907 13.6331 13.6411C13.8981 13.3822 14.1048 13.0698 14.2397 12.7247C14.6536 11.6725 14.5557 9.17305 14.5557 8.0039C14.5557 6.83475 14.6473 4.33845 14.2397 3.28621C14.1048 2.94116 13.8981 2.62878 13.6331 2.36985C13.3756 2.10401 13.0628 1.89797 12.7169 1.76631C11.6649 1.34921 9.1658 1.45033 8 1.45033C6.8342 1.45033 4.33515 1.34605 3.28308 1.76631ZM8 12.1086C7.18768 12.1086 6.3936 11.8676 5.71818 11.4163C5.04276 10.9649 4.51634 10.3233 4.20547 9.57274C3.89461 8.82213 3.81328 7.99618 3.97175 7.19934C4.13023 6.4025 4.5214 5.67055 5.0958 5.09606C5.6702 4.52157 6.40202 4.13034 7.19874 3.97184C7.99545 3.81334 8.82126 3.89469 9.57174 4.2056C10.3222 4.51651 10.9637 5.04302 11.415 5.71855C11.8663 6.39408 12.1072 7.18829 12.1072 8.00074C12.1063 9.08965 11.6732 10.1337 10.9031 10.9034C10.1329 11.6731 9.08874 12.1054 8 12.1054V12.1086ZM8 5.33697C7.47262 5.33697 6.95707 5.49338 6.51857 5.78643C6.08007 6.07947 5.7383 6.49599 5.53648 6.98331C5.33466 7.47063 5.28185 8.00686 5.38474 8.52419C5.48762 9.04152 5.74158 9.51673 6.1145 9.8897C6.48742 10.2627 6.96254 10.5167 7.47979 10.6196C7.99704 10.7225 8.53319 10.6697 9.02043 10.4678C9.50767 10.266 9.92411 9.92414 10.2171 9.48557C10.5101 9.04699 10.6665 8.53137 10.6665 8.0039C10.6657 7.29655 10.3846 6.61836 9.88477 6.1179C9.38497 5.61743 8.70723 5.33548 8 5.33381V5.33697ZM12.2714 4.70499C12.084 4.70499 11.9007 4.6494 11.7449 4.54523C11.589 4.44107 11.4675 4.29302 11.3958 4.1198C11.3241 3.94658 11.3053 3.75598 11.3419 3.57209C11.3784 3.38821 11.4687 3.2193 11.6013 3.08672C11.7338 2.95415 11.9027 2.86386 12.0865 2.82729C12.2704 2.79071 12.461 2.80948 12.6342 2.88123C12.8074 2.95298 12.9554 3.07448 13.0595 3.23037C13.1637 3.38627 13.2193 3.56954 13.2193 3.75703C13.2151 4.0057 13.1134 4.24278 12.9361 4.41715C12.7588 4.59153 12.5201 4.68923 12.2714 4.68919V4.70499Z" fill="url(#paint0_linear_43_360)"/>
<defs>
<linearGradient id="paint0_linear_43_360" x1="16" y1="0.0020752" x2="0" y2="16.0021" gradientUnits="userSpaceOnUse">
<stop stop-color="#F7C760"/>
<stop offset="0.473958" stop-color="#EA634E"/>
<stop offset="1" stop-color="#BE48A2"/>
</linearGradient>
</defs>
</svg>
