<svg width="18" height="21" viewBox="0 0 18 21" fill="none" xmlns="http://www.w3.org/2000/svg">
<path fill-rule="evenodd" clip-rule="evenodd" d="M0.0302357 7.60908C0.201162 5.53588 1.14546 3.60277 2.67565 2.19355C4.20584 0.784331 6.21 0.00206886 8.29024 0.0020752H8.72224C10.8025 0.00206886 12.8066 0.784331 14.3368 2.19355C15.867 3.60277 16.8113 5.53588 16.9822 7.60908C17.1724 9.91836 16.459 12.2113 14.9922 14.0051L10.1992 19.8661C9.99412 20.1169 9.73582 20.319 9.44303 20.4578C9.15024 20.5966 8.83026 20.6686 8.50624 20.6686C8.18221 20.6686 7.86224 20.5966 7.56944 20.4578C7.27665 20.319 7.01836 20.1169 6.81324 19.8661L2.02024 14.0051C0.553352 12.2114 -0.160079 9.91837 0.0302357 7.60908ZM8.29024 1.50208C6.58672 1.50233 4.94557 2.1431 3.69256 3.29719C2.43954 4.45129 1.66627 6.03432 1.52624 7.73207C1.36784 9.65394 1.96152 11.5623 3.18224 13.0551L7.97524 18.9171C8.03967 18.9959 8.12083 19.0595 8.21283 19.1031C8.30484 19.1468 8.4054 19.1694 8.50724 19.1694C8.60907 19.1694 8.70963 19.1468 8.80164 19.1031C8.89365 19.0595 8.9748 18.9959 9.03924 18.9171L13.8322 13.0551C15.0522 11.562 15.6452 9.65367 15.4862 7.73207C15.3462 6.03415 14.5728 4.45097 13.3195 3.29686C12.0663 2.14274 10.4249 1.50208 8.72124 1.50208H8.29024Z" fill="#8A8A8A"/>
</svg>
