<svg width="46" height="32" viewBox="0 0 46 32" fill="none" xmlns="http://www.w3.org/2000/svg">
<path d="M20.6157 1.94818C21.0845 1.46429 21.9036 1.79585 21.9038 2.46967V29.832C21.9038 30.2462 21.568 30.582 21.1538 30.582H14.8403C14.4263 30.5817 14.0903 30.246 14.0903 29.832V8.9931C14.0903 8.79841 14.1659 8.61053 14.3013 8.47064L20.6157 1.94818Z" fill="#254B86" stroke="#254B86" stroke-width="0.5"/>
<path d="M11.9932 16.1754C12.4898 15.8228 13.1777 16.1777 13.1777 16.7868V30.154C13.1777 30.5574 12.8583 30.8891 12.4551 30.904L8.22168 31.0602C7.79706 31.0757 7.44434 30.7352 7.44434 30.3102V19.7926C7.44441 19.5499 7.56186 19.3219 7.75977 19.1813L11.9932 16.1754Z" fill="#254B86" stroke="#254B86" stroke-width="0.5"/>
<path d="M32.2334 17.0051C32.2334 16.3985 32.916 16.0424 33.4131 16.3898L37.6465 19.3508C37.8472 19.4911 37.9668 19.7202 37.9668 19.965V28.4426C37.9668 28.8757 37.6012 29.2193 37.1689 29.1916L32.9355 28.9182C32.5409 28.8927 32.2334 28.5646 32.2334 28.1691V17.0051Z" fill="#254B86" stroke="#254B86" stroke-width="0.5"/>
<path d="M31.1975 7.15277C31.1975 6.83693 31.0483 6.53964 30.7951 6.35091L24.4825 1.64676C23.8226 1.15497 22.8843 1.62642 22.885 2.44943L22.9074 29.2252C22.9079 29.8098 23.4076 30.2694 23.9903 30.2209L30.28 29.6976C30.7984 29.6545 31.1971 29.2212 31.1971 28.7011L31.1975 7.15277Z" stroke="#254B86" stroke-width="0.5" stroke-miterlimit="10"/>
<path d="M29.4946 8.08505V9.73544L24.4194 6.41025V4.59872L29.4946 8.08505Z" fill="#254B86" stroke="#254B86" stroke-width="0.5"/>
<path d="M29.4946 11.3461V12.9965L24.4194 9.6713V7.85977L29.4946 11.3461Z" fill="#254B86" stroke="#254B86" stroke-width="0.5"/>
<path d="M29.4946 14.6003V16.2507L24.4194 12.9255V11.114L29.4946 14.6003Z" fill="#254B86" stroke="#254B86" stroke-width="0.5"/>
<path d="M29.4946 17.8596V19.51L24.4194 16.1848V14.3733L29.4946 17.8596Z" fill="#254B86" stroke="#254B86" stroke-width="0.5"/>
<path d="M29.4946 21.1189V22.7693L24.4194 19.4441V17.6326L29.4946 21.1189Z" fill="#254B86" stroke="#254B86" stroke-width="0.5"/>
<path d="M29.4946 24.3748V26.0252L24.4194 22.7V20.8885L29.4946 24.3748Z" fill="#254B86" stroke="#254B86" stroke-width="0.5"/>
<path d="M29.4946 27.6342V29.2845L24.4194 25.9594V24.1478L29.4946 27.6342Z" fill="#254B86" stroke="#254B86" stroke-width="0.5"/>
<path d="M27.146 29.2433L27.2739 29.9601L24.4194 29.1613V27.4005L27.146 29.2433Z" fill="#254B86" stroke="#254B86" stroke-width="0.5"/>
<path d="M31.0508 29.0347C33.48 28.9642 35.8835 28.9493 38.292 29.1821C39.3487 29.285 40.3187 29.428 41.1777 29.5806L41.1787 29.5815C41.6098 29.6553 42.0135 29.7347 42.3867 29.8159C42.0288 29.7911 41.6443 29.7673 41.2354 29.7446H41.2334C40.364 29.7023 39.3832 29.6809 38.3154 29.6831C35.8731 29.6931 33.4461 29.8637 31.0225 30.0649H31.0215C30.3542 30.1238 29.676 30.1924 28.9902 30.2661C28.3054 30.3402 27.6114 30.4165 26.9131 30.4937H26.9121L22.6777 30.9849C21.2579 31.142 19.8426 31.3003 18.4492 31.4233H18.4482C17.7525 31.4887 17.0613 31.543 16.3779 31.5894C16.0364 31.6122 15.6971 31.6334 15.3604 31.6528L14.3574 31.7056C11.9296 31.7762 9.52765 31.7898 7.12012 31.5571C6.06357 31.4551 5.09376 31.3115 4.23438 31.1597H4.2334C3.80901 31.0872 3.41131 31.0081 3.04297 30.9282C3.39609 30.9527 3.77536 30.9762 4.17773 30.9985H4.17871C4.83095 31.0308 5.54559 31.0509 6.3125 31.0581L7.09668 31.061C9.53854 31.051 11.9659 30.8809 14.3896 30.6792H14.3906C15.0574 30.6202 15.7351 30.5515 16.4209 30.4771C17.1066 30.404 17.8014 30.3265 18.499 30.2495H18.5C19.897 30.0875 21.3158 29.9235 22.7354 29.7573L22.7344 29.7563C24.1541 29.599 25.5694 29.4405 26.9629 29.3179H26.9639C27.6602 29.2527 28.3518 29.1963 29.0342 29.1509C29.7155 29.1051 30.3884 29.0648 31.0498 29.0337L31.0508 29.0347Z" fill="#254B86" stroke="#254B86" stroke-width="0.5"/>
</svg>
