<svg width="19" height="15" viewBox="0 0 19 15" fill="none" xmlns="http://www.w3.org/2000/svg">
<path d="M17.0461 3.74048C17.0461 3.9021 17.0461 4.06677 17.0461 4.23144C17.0461 9.23557 13.1288 15.0021 5.96533 15.0021C3.85024 15.0057 1.77898 14.4159 0 13.3035C0.31239 13.3373 0.626606 13.3526 0.940904 13.3493C2.69283 13.3531 4.39515 12.7838 5.77402 11.7331C4.96154 11.7182 4.17407 11.4573 3.52136 10.9867C2.86865 10.516 2.38321 9.85911 2.13272 9.10749C2.37647 9.14544 2.6229 9.16481 2.86976 9.16543C3.2158 9.16477 3.56037 9.12174 3.89534 9.03735C3.01082 8.86651 2.21467 8.40256 1.6427 7.72466C1.07074 7.04676 0.758412 6.1969 0.758996 5.32009V5.27434C1.3025 5.56775 1.90976 5.73182 2.53103 5.75311C1.70612 5.21625 1.12247 4.39407 0.898756 3.45376C0.675038 2.51344 0.828049 1.52558 1.32668 0.691037C2.30385 1.86272 3.5238 2.82125 4.90714 3.50426C6.29047 4.18727 7.80621 4.57946 9.35573 4.65531C9.29174 4.37081 9.25915 4.08049 9.2585 3.78927C9.25917 3.03014 9.49426 2.2887 9.93332 1.66097C10.3724 1.03325 10.9952 0.548171 11.7211 0.268562C12.4469 -0.0110462 13.2424 -0.0722999 14.0045 0.0927352C14.7666 0.25777 15.4602 0.64149 15.9954 1.19419C16.8667 1.03151 17.7021 0.7219 18.4637 0.279362C18.1736 1.15354 17.566 1.89504 16.7544 2.36518C17.5282 2.28252 18.285 2.08827 19 1.78883C18.4649 2.54056 17.8045 3.20017 17.0461 3.74048Z" fill="#46A5F0"/>
</svg>
