<svg width="20" height="14" viewBox="0 0 20 14" fill="none" xmlns="http://www.w3.org/2000/svg">
<path d="M16.9889 0.203273C17.3653 0.203219 17.7379 0.27793 18.0849 0.423031C18.4319 0.568131 18.7463 0.780705 19.0098 1.0483C19.0098 1.0483 19.6228 1.64854 19.8013 3.02339C19.9329 4.09258 19.9993 5.16872 20 6.24591V7.7616C19.9993 8.83767 19.9329 9.9127 19.8013 10.9808C19.6228 12.3489 19.0098 12.9592 19.0098 12.9592C18.4734 13.492 17.7466 13.7911 16.9889 13.7908C16.9889 13.7908 14.2001 14.0021 9.99326 14.0021C4.79285 13.9551 3.19973 13.7975 3.19973 13.7975C2.75177 13.7204 1.74806 13.7405 0.990233 12.9525C0.990233 12.9525 0.37724 12.3422 0.198729 10.9741C0.0683228 9.90813 0.00195563 8.8354 0 7.7616V6.24591C0.00283923 5.16869 0.070314 4.0926 0.20208 3.02339C0.380591 1.64854 0.993605 1.0483 0.993605 1.0483C1.2566 0.780096 1.57094 0.567123 1.91805 0.421978C2.26517 0.276833 2.638 0.202465 3.01449 0.203273C3.01449 0.203273 5.80329 0.0020752 10.0101 0.0020752C14.2169 0.0020752 16.9889 0.203273 16.9889 0.203273ZM13.3311 6.80255L7.94207 3.99249V9.57908L13.3311 6.80255Z" fill="#DB5336"/>
</svg>
