<svg width="18" height="14" viewBox="0 0 18 14" fill="none" xmlns="http://www.w3.org/2000/svg">
<path d="M3.37484 0.335449H14.6248C15.3166 0.335404 15.9822 0.600077 16.485 1.07518C16.9879 1.55027 17.2898 2.19978 17.329 2.89045L17.3332 3.04378V10.9604C17.3332 11.6522 17.0685 12.3178 16.5934 12.8206C16.1183 13.3235 15.4688 13.6255 14.7782 13.6646L14.6248 13.6688H3.37484C2.68306 13.6688 2.01748 13.4042 1.51464 12.9291C1.01181 12.454 0.709836 11.8045 0.670671 11.1138L0.666504 10.9604V3.04378C0.666459 2.352 0.931132 1.68643 1.40623 1.18359C1.88133 0.680755 2.53083 0.378781 3.2215 0.339616L3.37484 0.335449ZM16.0832 4.81295L9.2915 8.38795C9.21482 8.42846 9.13054 8.45257 9.04402 8.45874C8.95751 8.46491 8.87066 8.453 8.789 8.42378L8.709 8.38878L1.9165 4.81378V10.9604C1.91652 11.3264 2.05415 11.679 2.30207 11.9483C2.54999 12.2175 2.89009 12.3837 3.25484 12.4138L3.37484 12.4188H14.6248C14.991 12.4188 15.3437 12.281 15.6129 12.0329C15.8822 11.7848 16.0483 11.4445 16.0782 11.0796L16.0832 10.9604V4.81295ZM14.6248 1.58545H3.37484C3.00885 1.58546 2.65624 1.72309 2.38701 1.97102C2.11778 2.21894 1.95162 2.55903 1.9215 2.92378L1.9165 3.04378V3.40128L8.99984 7.12962L16.0832 3.40045V3.04378C16.0831 2.67766 15.9454 2.32494 15.6973 2.05569C15.4492 1.78644 15.1089 1.62037 14.744 1.59045L14.6248 1.58545Z" fill="#8A8A8A"/>
</svg>
