<svg width="24" height="24" viewBox="0 0 24 24" fill="none" xmlns="http://www.w3.org/2000/svg">
<path d="M9.5 17.833C10.4205 17.833 11.167 18.5795 11.167 19.5C11.167 20.4205 10.4205 21.167 9.5 21.167C8.57954 21.167 7.83301 20.4205 7.83301 19.5C7.83301 18.5795 8.57954 17.833 9.5 17.833ZM18.667 17.833C19.5873 17.8332 20.333 18.5796 20.333 19.5C20.333 20.4204 19.5873 21.1668 18.667 21.167C17.7465 21.167 17 20.4205 17 19.5C17 18.5795 17.7465 17.833 18.667 17.833ZM6.16699 2C6.56404 2.00015 6.90547 2.28056 6.9834 2.66992L7.68359 6.16699H21.167C21.4152 6.16709 21.6504 6.27754 21.8086 6.46875C21.9669 6.66011 22.0319 6.91229 21.9854 7.15625L20.6504 14.1543C20.5361 14.7295 20.2234 15.2464 19.7666 15.6143C19.3118 15.9803 18.7427 16.1761 18.1592 16.167H10.0742C9.49066 16.1761 8.92157 15.9803 8.4668 15.6143C8.01006 15.2465 7.69741 14.7294 7.58301 14.1543L6.19043 7.19922C6.1848 7.17626 6.18044 7.15256 6.17676 7.12891L5.4834 3.66699H2.83301C2.37292 3.66682 2 3.29314 2 2.83301C2.00018 2.37303 2.37303 2.00018 2.83301 2H6.16699ZM9.21777 13.8291C9.25586 14.0209 9.35944 14.1938 9.51172 14.3164C9.66407 14.439 9.85524 14.5037 10.0508 14.5H18.1826C18.378 14.5037 18.5684 14.4388 18.7207 14.3164C18.8723 14.1943 18.9771 14.0228 19.0156 13.832L20.1592 7.83301H8.01758L9.21777 13.8291Z" fill="#636366"/>
</svg>
