<svg width="17" height="16" viewBox="0 0 17 16" fill="none" xmlns="http://www.w3.org/2000/svg">
<path fill-rule="evenodd" clip-rule="evenodd" d="M2.77769 0.704538C3.79185 -0.303796 5.46185 -0.124629 6.31102 1.01037L7.36269 2.4137C8.05435 3.33704 7.99269 4.62704 7.17185 5.44287L6.97352 5.6412C6.95112 5.72448 6.94884 5.81188 6.96685 5.8962C7.01935 6.2362 7.30352 6.9562 8.49352 8.13954C9.68352 9.32287 10.4085 9.6062 10.7535 9.65954C10.8404 9.67801 10.9304 9.67544 11.016 9.65204L11.356 9.3137C12.086 8.5887 13.206 8.45287 14.1094 8.9437L15.701 9.81037C17.0652 10.5504 17.4094 12.4037 16.2927 13.5145L15.1085 14.6912C14.7352 15.062 14.2335 15.3712 13.6219 15.4287C12.1135 15.5695 8.59935 15.3895 4.90519 11.717C1.45769 8.2887 0.796019 5.2987 0.711852 3.82537C0.670185 3.08037 1.02185 2.45037 1.47019 2.00537L2.77769 0.704538ZM5.31102 1.75954C4.88852 1.19537 4.10185 1.15037 3.65852 1.5912L2.35019 2.8912C2.07519 3.16454 1.94352 3.4662 1.96019 3.75454C2.02685 4.92537 2.56019 7.62287 5.78685 10.8312C9.17185 14.1962 12.2977 14.297 13.506 14.1837C13.7527 14.1612 13.9977 14.0329 14.2269 13.8054L15.4102 12.6279C15.8919 12.1495 15.786 11.2779 15.1044 10.9079L13.5127 10.042C13.0727 9.80371 12.5577 9.88204 12.2377 10.2004L11.8585 10.5779L11.4169 10.1345C11.8585 10.5779 11.8577 10.5787 11.8569 10.5787L11.856 10.5804L11.8535 10.5829L11.8477 10.5879L11.8352 10.5995C11.7998 10.6319 11.7619 10.6614 11.7219 10.6879C11.6552 10.732 11.5669 10.7812 11.456 10.822C11.231 10.9062 10.9327 10.9512 10.5644 10.8945C9.84185 10.7837 8.88435 10.2912 7.61185 9.02621C6.34019 7.7612 5.84352 6.80954 5.73185 6.08787C5.67435 5.71954 5.72019 5.4212 5.80519 5.1962C5.85232 5.06976 5.91927 4.95162 6.00352 4.8462L6.03019 4.81704L6.04185 4.80454L6.04685 4.79954L6.04935 4.79704L6.05102 4.79537L6.29102 4.55704C6.64769 4.2012 6.69769 3.61204 6.36185 3.16287L5.31102 1.75954Z" fill="#8A8A8A"/>
</svg>
